<svg viewBox="0 0 800 600" xmlns="http://www.w3.org/2000/svg">
  <style>
    .st0{fill:#4a6eb5;}
    .st1{fill:#6b8dc9;}
    .st2{fill:#f8f9fa;}
    .st3{fill:#ff9900;}
    .st4{fill:#0078ad;}
    .st5{fill:#FF3F6C;}
    .st6{fill:#2C4152;}
    .st7{fill:#28a745;}
  </style>
  
  <g id="background">
    <rect x="0" y="0" width="800" height="600" fill="white" />
  </g>
  
  <g id="devices">
    <rect x="150" y="150" width="240" height="160" rx="8" class="st2" stroke="#ddd" stroke-width="2" />
    <rect x="170" y="170" width="200" height="100" rx="4" class="st1" opacity="0.2" />
    <circle cx="270" cy="290" r="8" class="st0" />
    
    <rect x="420" y="130" width="120" height="220" rx="10" class="st2" stroke="#ddd" stroke-width="2" />
    <rect x="430" y="150" width="100" height="160" rx="4" class="st1" opacity="0.2" />
    <circle cx="480" cy="330" r="8" class="st0" />
  </g>
  
  <g id="chart">
    <rect x="200" y="200" width="140" height="40" rx="4" class="st3" opacity="0.8" />
    <rect x="200" y="200" width="140" height="10" rx="4" class="st3" />
    <text x="270" y="225" font-family="Arial" font-size="12" fill="white" text-anchor="middle">Amazon</text>
    
    <rect x="200" y="250" width="90" height="40" rx="4" class="st4" opacity="0.8" />
    <rect x="200" y="250" width="90" height="10" rx="4" class="st4" />
    <text x="245" y="275" font-family="Arial" font-size="12" fill="white" text-anchor="middle">JioMart</text>
    
    <rect x="460" y="180" width="40" height="100" rx="4" class="st3" opacity="0.8" />
    <rect x="460" y="180" width="40" height="10" rx="4" class="st3" />
    
    <rect x="510" y="220" width="40" height="60" rx="4" class="st4" opacity="0.8" />
    <rect x="510" y="220" width="40" height="10" rx="4" class="st4" />
  </g>
  
  <g id="icons">
    <circle cx="350" cy="400" r="40" class="st0" opacity="0.1" />
    <path d="M350 370 L370 400 L350 430 L330 400 Z" class="st0" />
    <circle cx="350" cy="400" r="7" class="st0" />
    
    <circle cx="450" cy="400" r="40" class="st1" opacity="0.1" />
    <path d="M440 380 L470 380 L470 420 L440 420 Z" stroke-width="4" stroke="#6b8dc9" fill="none" stroke-linejoin="round" />
    <line x1="440" y1="395" x2="470" y2="395" stroke-width="4" stroke="#6b8dc9" stroke-linejoin="round" />
    <line x1="450" y1="380" x2="450" y2="420" stroke-width="4" stroke="#6b8dc9" stroke-linejoin="round" />
    
    <circle cx="550" cy="400" r="40" class="st7" opacity="0.1" />
    <path d="M535 395 L545 405 L565 385" stroke-width="5" stroke="#28a745" fill="none" stroke-linecap="round" stroke-linejoin="round" />
  </g>
  
  <g id="text-lines">
    <line x1="200" y1="450" x2="600" y2="450" stroke="#eee" stroke-width="2" />
    <line x1="200" y1="470" x2="550" y2="470" stroke="#eee" stroke-width="2" />
    <line x1="200" y1="490" x2="580" y2="490" stroke="#eee" stroke-width="2" />
    <line x1="200" y1="510" x2="500" y2="510" stroke="#eee" stroke-width="2" />
  </g>
  
  <g id="price-tags">
    <circle cx="170" cy="480" r="30" class="st0" opacity="0.2" />
    <text x="170" y="485" font-family="Arial" font-size="18" font-weight="bold" fill="#4a6eb5" text-anchor="middle">₹</text>
    
    <circle cx="600" cy="380" r="25" class="st7" opacity="0.2" />
    <text x="600" y="388" font-family="Arial" font-size="24" font-weight="bold" fill="#28a745" text-anchor="middle">%</text>
  </g>
</svg>